<?xml version="1.0" standalone="no"?>
<!DOCTYPE svg PUBLIC "-//W3C//DTD SVG 20010904//EN"
 "https://www.w3.org/TR/2001/REC-SVG-20010904/DTD/svg10.dtd">
<svg version="1.0" xmlns="https://www.w3.org/2000/svg"
 width="737.000000pt" height="737.000000pt" viewBox="0 0 737.000000 737.000000"
 preserveAspectRatio="xMidYMid meet">
<metadata>
Created by potrace 1.11, written by Peter Selinger 2001-2013
</metadata>
<g transform="translate(0.000000,737.000000) scale(0.100000,-0.100000)"
fill="#000000" stroke="none">
<path d="M79 6001 c-5 -37 -3 -86 6 -95 5 -7 33 -30 60 -52 50 -38 153 -139
188 -183 113 -142 188 -352 214 -601 9 -84 8 -405 -1 -890 -9 -437 -11 -560
-21 -1030 -8 -446 -13 -592 -20 -643 -29 -218 -50 -313 -97 -445 -78 -221
-210 -407 -347 -487 -50 -30 -51 -30 -51 -81 l0 -50 660 0 660 -1 0 51 c0 51
0 51 -47 76 -103 54 -228 206 -305 370 -36 76 -95 243 -104 296 -3 16 -9 45
-14 64 -5 19 -11 53 -15 75 -3 22 -7 54 -10 70 -14 97 -23 253 -30 585 -3 129
-8 300 -10 380 -2 80 -7 244 -10 365 -3 121 -7 301 -10 400 -10 362 -14 525
-21 765 -3 135 -8 248 -11 252 -2 5 1 8 7 8 6 0 14 -10 19 -22 5 -13 38 -85
75 -161 36 -76 66 -139 66 -141 0 -2 29 -64 64 -137 35 -74 96 -204 136 -289
40 -85 95 -202 122 -260 28 -58 61 -130 75 -160 14 -30 57 -120 94 -199 38
-79 69 -145 69 -147 0 -2 30 -65 66 -141 36 -76 95 -201 131 -277 35 -77 85
-183 110 -235 44 -93 85 -179 163 -346 126 -270 266 -567 319 -678 34 -70 61
-129 61 -131 0 -2 29 -64 64 -137 107 -225 158 -333 167 -356 8 -22 12 -22
140 -20 l133 2 27 70 c16 39 71 185 123 325 52 140 176 476 276 745 100 270
201 542 225 605 79 211 403 1083 445 1200 22 63 45 124 50 135 8 16 178 475
276 743 9 23 18 42 20 42 7 0 -2 -3082 -9 -3120 -4 -19 -9 -50 -12 -67 -32
-206 -126 -393 -235 -468 -38 -26 -40 -30 -40 -80 l0 -51 890 0 890 0 0 51 c0
48 -3 54 -40 83 -108 87 -210 298 -236 487 -3 28 -9 59 -12 70 -9 33 -10 3073
-1 3162 5 45 11 94 14 110 3 15 8 43 11 62 11 68 56 188 94 252 37 63 142 179
161 179 5 0 9 24 9 54 l0 54 -742 -2 -741 -1 -54 -155 c-30 -85 -63 -177 -73
-205 -10 -27 -60 -169 -110 -315 -50 -146 -96 -274 -100 -285 -8 -17 -46 -126
-104 -295 -8 -25 -40 -117 -71 -205 -31 -88 -76 -216 -100 -285 -23 -69 -54
-156 -68 -195 -25 -69 -64 -180 -272 -775 -59 -168 -117 -333 -129 -368 l-22
-62 -119 262 c-65 145 -134 297 -153 338 -19 41 -90 199 -159 350 -68 151
-135 298 -148 325 -12 28 -121 266 -240 530 -120 264 -233 514 -252 555 -19
41 -53 116 -75 165 -22 50 -52 117 -67 150 -16 33 -35 76 -44 95 -97 218 -159
353 -169 366 -9 12 -1657 17 -1659 5z"/>
<path d="M6745 2435 c-189 -35 -353 -189 -406 -383 -25 -87 -20 -225 10 -303
64 -168 198 -289 366 -333 71 -18 207 -15 276 7 259 83 416 341 362 597 -40
191 -167 334 -348 395 -88 30 -173 36 -260 20z"/>
</g>
</svg>
