<svg version="1" xmlns="http://www.w3.org/2000/svg" width="1162.667" height="1162.667" viewBox="0 0 872.000000 872.000000"><path d="M10 165.9v5.8l7.3 5.6c9.1 7 22.2 20.4 27.4 28.2 8.6 12.8 15.8 31 18.7 47.5 3.9 21.9 4 30.7 1.7 153-2.6 140.8-3.4 164.3-6.1 181.2-4.3 28-12.6 51.4-24.5 69.9-6 9.4-19.3 22.7-26.7 26.9L2 687.2V699h157v-11.8l-5.4-3c-19.9-11.3-39-41.2-47.5-74.7-6.4-25.4-7.6-39.6-9.6-115-.9-31.9-2.6-98.7-4-148.4-1.3-49.8-2.3-90.6-2.2-90.7.1-.2 48.2 101.7 106.8 226.4l106.6 226.7 15.9.3 15.9.2 28.8-77.2c15.8-42.5 53.9-145 84.7-227.8l56-150.5-.3 183.5c-.2 172.9-.3 184-2 193-4.8 25-14.3 43.1-27.7 53.4-5 3.8-5 3.8-5 9.7v5.9h211v-11.6l-7.7-7.9c-9-9.3-13.3-16.1-18.1-28.8-4.2-11.3-6.8-23.5-8.2-39.2-.8-8.3-1-66.8-.8-191.5.4-178.5.4-179.6 2.6-190.5 4.7-24.5 12.1-39.8 24.7-51.3 3.1-2.9 6.1-5.2 6.6-5.2s.9-2.9.9-6.5V160H505.4l-64.9 185c-35.7 101.8-65.2 184.7-65.6 184.3-.4-.5-38.3-83.6-84.3-184.8l-83.5-184-98.5-.3L10 160v5.9zM793.5 582.9c-17.5 5.1-31.3 16.7-39.1 32.8-19.9 41 9.6 88.2 55.2 88.3 25.5 0 48.3-15.4 57.7-39 6.8-17.2 6-32.8-2.5-50-7.6-15.6-23.3-28.2-40.3-32.5-8-2-23.4-1.8-31 .4z"/></svg>